<svg width="50" height="50" viewBox="0 0 50 50" fill="none" xmlns="http://www.w3.org/2000/svg">
<rect x="0.5" y="0.5" width="49" height="49" rx="24.5" stroke="#FF6739" stroke-dasharray="4 4"/>
<g clip-path="url(#clip0_162_27115)">
<path d="M32.5 20H31.25V17.5C31.25 14.05 28.45 11.25 25 11.25C21.55 11.25 18.75 14.05 18.75 17.5V20H17.5C16.125 20 15 21.125 15 22.5V35C15 36.375 16.125 37.5 17.5 37.5H32.5C33.875 37.5 35 36.375 35 35V22.5C35 21.125 33.875 20 32.5 20ZM21.25 17.5C21.25 15.425 22.925 13.75 25 13.75C27.075 13.75 28.75 15.425 28.75 17.5V20H21.25V17.5ZM31.25 35H18.75C18.0625 35 17.5 34.4375 17.5 33.75V23.75C17.5 23.0625 18.0625 22.5 18.75 22.5H31.25C31.9375 22.5 32.5 23.0625 32.5 23.75V33.75C32.5 34.4375 31.9375 35 31.25 35ZM25 31.25C26.375 31.25 27.5 30.125 27.5 28.75C27.5 27.375 26.375 26.25 25 26.25C23.625 26.25 22.5 27.375 22.5 28.75C22.5 30.125 23.625 31.25 25 31.25Z" fill="#FF6739"/>
</g>
<defs>
<clipPath id="clip0_162_27115">
<rect width="30" height="30" fill="white" transform="translate(10 10)"/>
</clipPath>
</defs>
</svg>
